<svg t="1703172121443" class="icon" viewBox="0 0 1024 1024" version="1.1" xmlns="http://www.w3.org/2000/svg" p-id="5549" width="128" height="128"><path d="M908.049067 713.403733l2.235733 0.119467V91.989333c0-50.7392-45.243733-91.989333-100.898133-91.989333H186.299733c-55.6032 0-100.9152 41.2672-100.9152 91.989333v508.450134H85.333333v268.066133c0 50.705067 45.312 91.972267 100.9664 91.972267H590.506667C627.387733 999.492267 678.9632 1024 736.4096 1024 847.9232 1024 938.666667 932.471467 938.666667 819.933867c0-39.133867-11.52-75.434667-30.6176-106.530134zM186.299733 896.512c-20.3264 0-37.495467-12.817067-37.495466-28.0064V616.1408h0.068266V91.989333c0-15.189333 17.169067-28.0064 37.444267-28.0064h623.069867c20.3264 0 37.4272 12.817067 37.4272 28.0064v557.4656a199.7824 199.7824 0 0 0-110.3872-33.450666c-111.5136 0-202.1888 91.511467-202.1888 203.912533 0 27.136 5.512533 52.8896 15.069866 76.578133h-363.008z m550.109867 63.470933c-76.4928 0-138.717867-62.7712-138.717867-140.049066 0-77.124267 62.225067-139.895467 138.717867-139.895467 76.544 0 138.786133 62.7712 138.786133 139.895467 0 77.277867-62.225067 140.049067-138.786133 140.049066z m0 0" fill="#ffffff" p-id="5550"></path><path d="M754.705067 808.4992V712.704a15.906133 15.906133 0 0 0-15.872-16.008533 15.906133 15.906133 0 0 0-15.872 16.008533v111.786667c0 8.823467 7.0656 16.008533 15.872 16.008533h89.326933c8.738133 0 15.872-7.185067 15.872-16.008533a15.9744 15.9744 0 0 0-15.872-16.008534h-73.454933z m0 0M687.633067 513.826133a31.8976 31.8976 0 0 0-31.744-32h-126.941867V417.792h126.941867a31.931733 31.931733 0 0 0 31.726933-32.017067 31.880533 31.880533 0 0 0-31.726933-32h-113.800534l99.054934-99.908266a32.2048 32.2048 0 0 0 0-45.2608 31.5392 31.5392 0 0 0-44.885334 0l-99.054933 99.908266-99.037867-99.908266a31.4368 31.4368 0 0 0-44.885333 0 32.2048 32.2048 0 0 0 0 45.2608l99.054933 99.908266h-113.800533a31.914667 31.914667 0 0 0-31.744 32c0 17.629867 14.267733 32.017067 31.744 32.017067h126.941867v64.017067h-126.941867a31.914667 31.914667 0 0 0-31.744 32c0 17.629867 14.267733 32.017067 31.744 32.017066h126.941867l-0.375467 70.144c0 17.629867 14.199467 32 31.726933 32 17.476267 0 31.744-14.370133 31.744-32l0.375467-70.144h126.941867a31.914667 31.914667 0 0 0 31.744-32z m0 0" fill="#ffffff" p-id="5551"></path></svg>