<svg t="1703160570772" class="icon" viewBox="0 0 1024 1024" version="1.1" xmlns="http://www.w3.org/2000/svg" p-id="4282" width="128" height="128"><path d="M486.104 853.333c23.564 0 42.667 19.103 42.667 42.667s-19.103 42.667-42.667 42.667h-272.77c-47.129 0-85.334-38.205-85.334-85.334V170.667c0-47.129 38.205-85.334 85.333-85.334H768c47.128 0 85.333 38.205 85.333 85.334v231.562c0 23.564-19.102 42.667-42.666 42.667-23.564 0-42.667-19.103-42.667-42.667V170.667H213.333v682.666h272.771zM339.156 449.94c-23.564 0-42.666-19.102-42.666-42.666 0-23.564 19.102-42.667 42.666-42.667h216.39c23.564 0 42.666 19.103 42.666 42.667s-19.102 42.666-42.666 42.666h-216.39z m0 209.455c-23.564 0-42.666-19.103-42.666-42.667s19.102-42.666 42.666-42.666h116.47c23.563 0 42.666 19.102 42.666 42.666 0 23.564-19.103 42.667-42.667 42.667H339.156zM660.213 549.45l83.437 130.326a34.133 34.133 0 0 1 0 36.809l-84.877 132.401c-0.155 0.894 0.192 1.242 0.62 1.242h209.453c0.808-0.413 0.878-0.899-0.237-2.438l-89.234-130.326a34.133 34.133 0 0 1 0-38.567l90.092-131.522a0.776 0.776 0 0 0-0.156-1.087c-0.09-0.067-70.062-0.118-209.917-0.155a0.776 0.776 0 0 0-0.776 0.776c0 0.112 0.532 0.96 1.595 2.541z m-69.861-2.54c0-38.132 30.91-69.043 69.042-69.043h209.452a69.042 69.042 0 0 1 41.425 13.808c30.505 22.879 36.688 66.155 14.666 95.463l-76.033 111.047 75.176 109.841c22.879 30.505 16.696 73.781-13.809 96.66a69.042 69.042 0 0 1-41.425 13.808H659.394c-38.131 0-69.042-30.911-69.042-69.042 0-14.939 4.845-29.475 12.368-39.35l71.654-111.922-71.088-111.037a69.042 69.042 0 0 1-12.934-40.234z" fill="#2c2c2c" p-id="4283"></path></svg>